<?xml version="1.0" standalone="no"?>
<!DOCTYPE svg PUBLIC "-//W3C//DTD SVG 20010904//EN"
 "http://www.w3.org/TR/2001/REC-SVG-20010904/DTD/svg10.dtd">
<svg version="1.0" xmlns="http://www.w3.org/2000/svg"
 width="1024.000000pt" height="1024.000000pt" viewBox="0 0 1024.000000 1024.000000"
 preserveAspectRatio="xMidYMid meet">
<metadata>
Created by potrace 1.15, written by Peter Selinger 2001-2017
</metadata>
<g transform="translate(0.000000,1024.000000) scale(0.100000,-0.100000)"
fill="#000000" stroke="none">
<path d="M0 5120 l0 -5120 5120 0 5120 0 0 5120 0 5120 -5120 0 -5120 0 0
-5120z m5360 4030 c726 -48 1416 -278 1990 -663 80 -54 315 -228 365 -272 132
-112 384 -365 501 -500 42 -49 217 -284 271 -365 125 -187 263 -444 356 -666
378 -898 416 -1927 105 -2849 -111 -330 -278 -671 -461 -945 -55 -81 -233
-322 -263 -355 -11 -11 -37 -41 -58 -65 -57 -65 -201 -213 -292 -300 -273
-260 -612 -495 -965 -670 -854 -422 -1828 -528 -2759 -299 -438 108 -855 289
-1234 536 -94 61 -327 233 -391 288 -132 112 -384 365 -501 500 -42 49 -217
284 -271 365 -335 500 -555 1095 -638 1721 -77 584 -14 1228 177 1794 188 559
497 1073 888 1478 250 261 409 396 690 589 206 142 517 306 770 406 531 210
1157 309 1720 272z"/>
<path d="M3944 7005 c-462 -35 -894 -106 -1247 -206 -76 -22 -153 -47 -170
-55 -58 -30 -133 -112 -163 -177 -26 -55 -29 -73 -29 -162 0 -93 2 -105 33
-167 60 -123 174 -198 312 -206 65 -4 96 2 225 36 495 134 986 192 1625 192
1154 0 2139 -219 2920 -650 150 -82 216 -99 312 -80 130 25 225 96 280 208 31
62 33 74 33 167 0 90 -3 106 -29 160 -43 87 -104 141 -243 218 -736 408 -1692
660 -2763 727 -222 14 -884 11 -1096 -5z"/>
<path d="M4310 5633 c-501 -15 -992 -86 -1380 -198 -158 -46 -185 -59 -237
-113 -67 -68 -87 -119 -88 -222 0 -71 4 -93 24 -132 49 -97 126 -155 232 -177
63 -13 68 -12 363 63 938 239 2096 175 3051 -169 249 -89 504 -208 709 -329
42 -25 97 -52 122 -61 171 -58 366 61 403 245 20 97 -18 218 -91 287 -43 41
-244 156 -433 248 -573 279 -1241 462 -1940 529 -202 20 -568 34 -735 29z"/>
<path d="M4300 4314 c-463 -26 -777 -65 -1185 -150 -189 -40 -218 -50 -269
-100 -58 -56 -71 -89 -71 -179 0 -70 4 -86 28 -128 36 -61 94 -103 163 -118
51 -12 70 -9 292 34 282 56 370 70 602 97 625 72 1228 38 1756 -100 355 -92
630 -206 976 -402 64 -36 101 -51 141 -55 107 -11 204 44 253 143 23 48 26 63
22 124 -9 123 -55 172 -268 289 -544 299 -1156 478 -1815 531 -135 11 -525 20
-625 14z"/>
</g>
</svg>
